{
    "asset" : {
        "generator" : "Khronos glTF Blender I/O v1.2.75",
        "version" : "2.0"
    },
    "scene" : 0,
    "scenes" : [
        {
            "name" : "Scene",
            "nodes" : [
                0,
                1,
                2,
                3
            ]
        }
    ],
    "nodes" : [
        {
            "name" : "Light",
            "rotation" : [
                0.16907575726509094,
                0.7558803558349609,
                -0.27217137813568115,
                0.570947527885437
            ],
            "translation" : [
                4.076245307922363,
                5.903861999511719,
                -1.0054539442062378
            ]
        },
        {
            "name" : "Camera",
            "rotation" : [
                0.483536034822464,
                0.33687159419059753,
                -0.20870360732078552,
                0.7804827094078064
            ],
            "translation" : [
                7.358891487121582,
                4.958309173583984,
                6.925790786743164
            ]
        },
        {
            "mesh" : 0,
            "name" : "Sphere.001",
            "rotation" : [
                0.7071068286895752,
                0,
                0,
                0.7071067094802856
            ]
        },
        {
            "mesh" : 1,
            "name" : "Plane",
            "rotation" : [
                0.7071068286895752,
                0,
                0,
                0.7071067094802856
            ]
        }
    ],
    "materials" : [
        {
            "doubleSided" : true,
            "emissiveFactor" : [
                0,
                0,
                0
            ],
            "name" : "Material.001",
            "pbrMetallicRoughness" : {
                "baseColorTexture" : {
                    "index" : 0,
                    "texCoord" : 0
                },
                "metallicFactor" : 0,
                "roughnessFactor" : 0.5355796217918396
            }
        },
        {
            "doubleSided" : true,
            "emissiveFactor" : [
                0,
                0,
                0
            ],
            "name" : "Material.002",
            "pbrMetallicRoughness" : {
                "baseColorTexture" : {
                    "index" : 1,
                    "texCoord" : 0
                },
                "metallicFactor" : 0,
                "roughnessFactor" : 0.5355796217918396
            }
        },
        {
            "doubleSided" : true,
            "emissiveFactor" : [
                0,
                0,
                0
            ],
            "name" : "Material.003",
            "pbrMetallicRoughness" : {
                "baseColorTexture" : {
                    "index" : 2,
                    "texCoord" : 0
                },
                "metallicFactor" : 0,
                "roughnessFactor" : 0.6732679605484009
            }
        }
    ],
    "meshes" : [
        {
            "name" : "Sphere.001",
            "primitives" : [
                {
                    "attributes" : {
                        "POSITION" : 0,
                        "NORMAL" : 1,
                        "TEXCOORD_0" : 2
                    },
                    "indices" : 3,
                    "material" : 0
                },
                {
                    "attributes" : {
                        "POSITION" : 4,
                        "NORMAL" : 5,
                        "TEXCOORD_0" : 6
                    },
                    "indices" : 7,
                    "material" : 1
                }
            ]
        },
        {
            "name" : "Plane",
            "primitives" : [
                {
                    "attributes" : {
                        "POSITION" : 8,
                        "NORMAL" : 9,
                        "TEXCOORD_0" : 10
                    },
                    "indices" : 11,
                    "material" : 2
                }
            ]
        }
    ],
    "textures" : [
        {
            "source" : 0
        },
        {
            "source" : 1
        },
        {
            "source" : 1
        }
    ],
    "images" : [
        {
            "bufferView" : 4,
            "mimeType" : "image/jpeg",
            "name" : "Pumpkin"
        },
        {
            "bufferView" : 9,
            "mimeType" : "image/jpeg",
            "name" : "Green area"
        }
    ],
    "accessors" : [
        {
            "bufferView" : 0,
            "componentType" : 5126,
            "count" : 4568,
            "max" : [
                1.5099250078201294,
                1.509924054145813,
                -0.17725299298763275
            ],
            "min" : [
                -1.5099250078201294,
                -1.509924054145813,
                -2.2997090816497803
            ],
            "type" : "VEC3"
        },
        {
            "bufferView" : 1,
            "componentType" : 5126,
            "count" : 4568,
            "type" : "VEC3"
        },
        {
            "bufferView" : 2,
            "componentType" : 5126,
            "count" : 4568,
            "type" : "VEC2"
        },
        {
            "bufferView" : 3,
            "componentType" : 5123,
            "count" : 24192,
            "type" : "SCALAR"
        },
        {
            "bufferView" : 5,
            "componentType" : 5126,
            "count" : 2086,
            "max" : [
                0.284853994846344,
                0.20428699254989624,
                -2.151503086090088
            ],
            "min" : [
                -0.19751200079917908,
                -0.20416200160980225,
                -3.119849920272827
            ],
            "type" : "VEC3"
        },
        {
            "bufferView" : 6,
            "componentType" : 5126,
            "count" : 2086,
            "type" : "VEC3"
        },
        {
            "bufferView" : 7,
            "componentType" : 5126,
            "count" : 2086,
            "type" : "VEC2"
        },
        {
            "bufferView" : 8,
            "componentType" : 5123,
            "count" : 8832,
            "type" : "SCALAR"
        },
        {
            "bufferView" : 10,
            "componentType" : 5126,
            "count" : 4,
            "max" : [
                6.270799160003662,
                6.270799160003662,
                -0.164669007062912
            ],
            "min" : [
                -6.270799160003662,
                -6.270799160003662,
                -0.164669007062912
            ],
            "type" : "VEC3"
        },
        {
            "bufferView" : 11,
            "componentType" : 5126,
            "count" : 4,
            "type" : "VEC3"
        },
        {
            "bufferView" : 12,
            "componentType" : 5126,
            "count" : 4,
            "type" : "VEC2"
        },
        {
            "bufferView" : 13,
            "componentType" : 5123,
            "count" : 6,
            "type" : "SCALAR"
        }
    ],
    "bufferViews" : [
        {
            "buffer" : 0,
            "byteLength" : 54816,
            "byteOffset" : 0
        },
        {
            "buffer" : 0,
            "byteLength" : 54816,
            "byteOffset" : 54816
        },
        {
            "buffer" : 0,
            "byteLength" : 36544,
            "byteOffset" : 109632
        },
        {
            "buffer" : 0,
            "byteLength" : 48384,
            "byteOffset" : 146176
        },
        {
            "buffer" : 0,
            "byteLength" : 102144,
            "byteOffset" : 194560
        },
        {
            "buffer" : 0,
            "byteLength" : 25032,
            "byteOffset" : 296704
        },
        {
            "buffer" : 0,
            "byteLength" : 25032,
            "byteOffset" : 321736
        },
        {
            "buffer" : 0,
            "byteLength" : 16688,
            "byteOffset" : 346768
        },
        {
            "buffer" : 0,
            "byteLength" : 17664,
            "byteOffset" : 363456
        },
        {
            "buffer" : 0,
            "byteLength" : 174181,
            "byteOffset" : 381120
        },
        {
            "buffer" : 0,
            "byteLength" : 48,
            "byteOffset" : 555304
        },
        {
            "buffer" : 0,
            "byteLength" : 48,
            "byteOffset" : 555352
        },
        {
            "buffer" : 0,
            "byteLength" : 32,
            "byteOffset" : 555400
        },
        {
            "buffer" : 0,
            "byteLength" : 12,
            "byteOffset" : 555432
        }
    ],
    "buffers" : [
        {
            "byteLength" : 555444,
            "uri" : "data:application/octet-stream;base64,"
        }
    ]
}
